<?xml version="1.0" encoding="utf-8"?>
<!-- Generator: Adobe Illustrator 24.0.0, SVG Export Plug-In . SVG Version: 6.00 Build 0)  -->
<svg version="1.1" id="Layer_1" xmlns="http://www.w3.org/2000/svg" xmlns:xlink="http://www.w3.org/1999/xlink" x="0px" y="0px"
	 viewBox="0 0 512 512" style="enable-background:new 0 0 512 512;" xml:space="preserve">
<style type="text/css">
	.st0{fill:#FFFFFF;}
</style>
<g>
	<path class="st0" d="M147.54,323.68c61.61-70.4,123.03-140.57,184.59-210.9c13.05,11.3,26.09,22.59,39.33,34.05
		c-72.74,83.33-145.37,166.52-218.19,249.93C107.91,353.84,62.59,310.95,17,267.81c12.42-12.03,24.69-23.92,37.23-36.07
		C85.28,262.33,116.26,292.87,147.54,323.68z"/>
	<path class="st0" d="M274.49,399.35c-17.76-16.28-35.45-32.49-53.39-48.93c11.13-12.33,22.24-24.64,33.37-36.99
		c5.51,3.36,10.89,6.64,16.56,10.1c61.57-70.22,123.15-140.46,184.89-210.88c13.04,11.4,25.96,22.7,39.08,34.17
		C421.48,231.01,348.05,315.11,274.49,399.35z"/>
</g>
</svg>
